<?xml version="1.0" encoding="utf-8" ?><svg xmlns="http://www.w3.org/2000/svg" xmlns:xlink="http://www.w3.org/1999/xlink" width="506" height="542" viewBox="0 0 506 542"><path fill="#32bb78" transform="scale(1.14512 1.14512)" d="M225.717 10.6116C234.734 10.5338 244.212 13.8925 251.62 18.9367C263.4 26.8806 271.542 39.1789 274.254 53.1259C276.815 66.6842 273.442 81.2654 265.683 92.6254C258.645 102.897 247.842 109.981 235.616 112.341C236.011 115.834 235.808 122.004 235.796 125.797L235.728 149.768L235.753 171.617C235.757 174.318 235.928 180.711 235.485 183.032C247.42 185.267 258.431 194.993 266.18 203.989C269.126 201.527 276.305 197.567 279.827 195.536L298.314 184.798C305.022 180.962 311.631 176.973 318.438 173.309C321.417 171.706 324.304 169.885 327.42 168.567C327.31 168.171 327.227 167.829 327.134 167.431C320.306 138.364 335.649 109.617 366.106 103.365C379.088 100.657 392.613 103.308 403.613 110.715C414.563 117.998 422.705 129.337 425.273 142.326C428.015 155.948 425.191 170.1 417.432 181.626C408.991 194.144 396.997 200.817 382.464 203.647C382.702 207.182 382.639 211.414 382.665 214.992C382.7 222.877 382.685 230.762 382.62 238.647C382.562 252.308 383.149 265.881 382.043 279.494C381.5 286.185 381.177 291.557 379.212 298.069C374.317 314.293 363.141 327.423 349.818 337.522C345.195 341.027 339.275 344.793 334.405 348.068L309.281 365.126L285.924 380.953C282.049 383.598 275.489 388.373 271.552 390.477C273.871 395.486 274.672 405.556 274.543 411.149C273.662 452.674 223.868 473.172 192.004 447.949C156.937 420.192 171.952 362.166 216.715 356.535C234.486 354.299 246.705 360.76 260.298 371.461C264.475 367.686 273.704 361.786 278.68 358.393C290.436 350.285 302.254 342.269 314.135 334.345C318.254 331.462 322.409 328.63 326.598 325.849C332.582 321.938 338.093 318.676 343.395 313.767C362.184 296.367 359.15 270.265 359.431 247.083C359.612 232.105 359.207 216.972 359.654 201.936C353.131 199.427 344.579 192.382 339.25 187.949C333.425 190.842 326.922 194.889 321.181 198.154L292.63 214.202C286.55 217.672 279.982 221.621 273.69 224.574C275.015 236.189 273.213 247.961 267.399 258.206C260.879 269.737 250.002 278.166 237.21 281.603C227.47 284.259 216.598 284.088 206.962 280.9C203.224 279.663 198.348 276.975 194.905 275.026C189.801 277.826 180.45 285.02 175.122 288.721L136.515 315.342C130.017 319.894 120.447 327.198 114.042 331.131C119.031 338.128 121.046 347.656 121.284 356.158C121.558 365.925 119.45 375.145 114.296 383.523C107.33 394.711 96.1902 402.659 83.3447 405.605C69.6872 408.76 55.3351 406.304 43.5033 398.788C32.1157 391.627 24.0204 380.255 20.9821 367.15C17.8902 353.552 20.3601 339.281 27.8425 327.513C34.9503 316.633 46.084 309.017 58.8005 306.337C73.1052 303.313 86.8748 305.978 99.1066 313.944C117.914 301.099 136.127 287.876 154.817 274.869C162.737 269.357 171.289 262.764 179.371 257.702C169.647 242.041 171.099 216.76 182.113 202.178C189.802 191.998 200.43 184.741 213.179 182.743C212.86 180.181 212.993 175.976 213.002 173.263L213.003 159.241C212.997 143.895 212.774 127.443 213.233 112.18C204.737 109.997 196.563 105.118 190.05 99.2583C169.63 80.9206 168.949 46.5247 187.69 26.7612C198.446 15.4179 210.532 11.1372 225.717 10.6116ZM225.877 436.667C241.784 435.51 253.738 421.672 252.569 405.765C251.4 389.859 237.552 377.916 221.647 379.098C205.76 380.278 193.833 394.108 195.001 409.996C196.168 425.884 209.988 437.821 225.877 436.667ZM73.876 384.292C89.5897 382.46 100.833 368.222 98.9709 352.512C97.1087 336.801 82.8484 325.586 67.1419 327.478C51.4784 329.366 40.3002 343.578 42.1572 359.246C44.0142 374.913 58.2053 386.119 73.876 384.292ZM225.372 261.004C241.09 259.809 252.868 246.107 251.689 230.388C250.509 214.67 236.818 202.878 221.099 204.042C205.357 205.208 193.546 218.922 194.727 234.662C195.908 250.402 209.633 262.2 225.372 261.004ZM228.613 90.3477C244.146 88.1848 255.015 73.8805 252.936 58.3357C250.857 42.7909 236.612 31.8451 221.056 33.8399C205.381 35.8499 194.333 50.2286 196.427 65.8928C198.522 81.5569 212.96 92.5272 228.613 90.3477ZM378.628 181.547C394.243 180.033 405.664 166.133 404.122 150.521C402.58 134.909 388.66 123.513 373.051 125.082C357.481 126.648 346.119 140.526 347.657 156.099C349.195 171.671 363.053 183.058 378.628 181.547Z"/></svg>
